<svg width="327" height="322" viewBox="0 0 327 322" fill="none" xmlns="http://www.w3.org/2000/svg">
<g clip-path="url(#clip0_1_22)">
<line x1="8" y1="218" x2="318" y2="218" stroke="black" stroke-width="14"/>
<line x1="3.34488" y1="312.215" x2="77.3449" y2="221.215" stroke="black" stroke-width="12"/>
<line x1="-33.6551" y1="309.215" x2="40.3449" y2="218.215" stroke="black" stroke-width="12"/>
<line x1="77.3006" y1="318.27" x2="154.301" y2="221.27" stroke="black" stroke-width="12"/>
<line x1="117.301" y1="318.27" x2="194.301" y2="221.27" stroke="black" stroke-width="12"/>
<line x1="40.3006" y1="315.27" x2="117.301" y2="218.27" stroke="black" stroke-width="12"/>
<line x1="158.418" y1="318.126" x2="240.418" y2="221.126" stroke="black" stroke-width="12"/>
<line x1="199.418" y1="318.126" x2="281.418" y2="221.126" stroke="black" stroke-width="12"/>
<line x1="240.438" y1="317.103" x2="322.438" y2="221.103" stroke="black" stroke-width="12"/>
<line x1="281.438" y1="315.103" x2="363.438" y2="219.103" stroke="black" stroke-width="12"/>
<rect x="7" y="8" width="313" height="308" stroke="black" stroke-width="14"/>
<path d="M74.1675 140.81L46.8408 129.162V121.958L74.1675 110.341V118.974L57.6001 125.131L55.8862 125.544V125.734L57.6001 126.147L74.1675 132.177V140.81ZM76.3892 146.967L95.4639 96.7891H104.001L84.9268 146.967H76.3892ZM103.875 143V137.446L108.35 136.494V100.026L103.398 99.0742V93.4883H117.585V113.039C118.665 111.452 119.998 110.225 121.584 109.357C123.193 108.469 125.012 108.024 127.043 108.024C130.492 108.024 133.222 109.178 135.232 111.484C137.263 113.769 138.279 117.313 138.279 122.116V136.494L142.722 137.446V143H125.012V137.446L129.011 136.494V122.053C129.011 119.577 128.546 117.821 127.615 116.784C126.684 115.747 125.319 115.229 123.521 115.229C122.272 115.229 121.13 115.493 120.093 116.022C119.077 116.53 118.241 117.281 117.585 118.276V136.494L121.584 137.446V143H103.875ZM158.052 143.667C154.857 143.667 152.392 142.788 150.657 141.032C148.943 139.276 148.086 136.494 148.086 132.685V115.166H143.357V108.659H148.086V100.249H157.322V108.659H163.638V115.166H157.322V132.653C157.322 133.986 157.597 134.938 158.147 135.51C158.718 136.081 159.491 136.367 160.464 136.367C160.993 136.367 161.543 136.335 162.114 136.271C162.707 136.187 163.215 136.102 163.638 136.018L164.431 142.714C163.479 142.989 162.442 143.212 161.321 143.381C160.221 143.571 159.131 143.667 158.052 143.667ZM168.335 143V137.446L172.81 136.494V115.197L167.859 114.245V108.659H181.411L181.792 113.198C182.892 111.547 184.268 110.278 185.918 109.389C187.59 108.479 189.515 108.024 191.694 108.024C193.895 108.024 195.778 108.511 197.344 109.484C198.931 110.458 200.116 111.928 200.898 113.896C201.956 112.055 203.332 110.616 205.024 109.58C206.717 108.543 208.706 108.024 210.991 108.024C214.377 108.024 217.043 109.178 218.989 111.484C220.957 113.79 221.941 117.303 221.941 122.021V136.494L226.416 137.446V143H208.674V137.446L212.673 136.494V121.989C212.673 119.45 212.25 117.694 211.404 116.721C210.579 115.726 209.373 115.229 207.786 115.229C206.347 115.229 205.13 115.642 204.136 116.467C203.141 117.271 202.422 118.339 201.978 119.672V136.494L205.723 137.446V143H188.997V137.446L192.742 136.494V121.989C192.742 119.514 192.319 117.768 191.472 116.752C190.647 115.737 189.42 115.229 187.791 115.229C186.479 115.229 185.347 115.493 184.395 116.022C183.442 116.551 182.66 117.313 182.046 118.308V136.494L186.045 137.446V143H168.335ZM229.05 143V137.446L233.525 136.494V100.026L228.574 99.0742V93.4883H242.793V136.494L247.268 137.446V143H229.05ZM251.616 141.096V132.526L268.247 126.306L270.183 125.893V125.703L268.247 125.163L251.616 119.165V110.627L279.26 122.243V129.448L251.616 141.096Z" fill="black"/>
</g>
<defs>
<clipPath id="clip0_1_22">
<rect width="327" height="322" fill="white"/>
</clipPath>
</defs>
</svg>
